<svg width="13" height="18" viewBox="0 0 13 18" fill="none" xmlns="http://www.w3.org/2000/svg">
<g clip-path="url(#clip0_2003_81)">
<path fill-rule="evenodd" clip-rule="evenodd" d="M6.5 3.96176C8.32823 3.96176 9.81065 5.36495 9.81065 7.09547C9.81065 8.82598 8.32823 10.2292 6.5 10.2292C4.67177 10.2292 3.18935 8.82598 3.18935 7.09547C3.18935 5.36495 4.67177 3.96176 6.5 3.96176ZM6.5 0.942871C10.0901 0.942871 13 3.69723 13 7.09547C13 7.22678 12.9953 7.35745 12.9866 7.48686L12.9806 7.56362V7.56996C12.6911 11.5651 8.75379 15.2805 6.24198 17.8731C4.10078 15.4023 1.07496 11.8664 0.227188 8.71307C0.0790803 8.19734 0 7.6556 0 7.09547C0 3.69723 2.90989 0.942871 6.5 0.942871Z" fill="white"/>
</g>
<defs>
<clipPath id="clip0_2003_81">
<rect width="13" height="16.9309" fill="white" transform="translate(0 0.942871)"/>
</clipPath>
</defs>
</svg>
