<svg width="16" height="15" viewBox="0 0 16 15" fill="none" xmlns="http://www.w3.org/2000/svg">
<g clip-path="url(#clip0_502_275)">
<rect width="16" height="14.939" fill="#F6F7F9"/>
<path fill-rule="evenodd" clip-rule="evenodd" d="M1.75117 5.87056H14.2488C14.4466 5.87056 14.6088 6.03305 14.6088 6.23124V13.1905C14.6088 13.3887 14.4466 13.5512 14.2488 13.5512H1.75117C1.5534 13.5512 1.39124 13.3887 1.39124 13.1905V6.23124C1.39124 6.03305 1.5534 5.87056 1.75117 5.87056ZM0.876723 1.96533H2.53924V2.8211C2.53924 3.61156 3.18333 4.25774 3.97215 4.25774C4.76098 4.25774 5.40583 3.61232 5.40583 2.8211V1.96533H10.5934V2.8211C10.5934 3.61156 11.2375 4.25774 12.0271 4.25774C12.8167 4.25774 13.4608 3.61232 13.4608 2.8211V1.96533H15.1233C15.6052 1.96533 16 2.36094 16 2.84387V14.0607C16 14.5444 15.6052 14.9392 15.1233 14.9392H0.876723C0.39479 14.9392 0 14.5436 0 14.0607V2.84387C0 2.36018 0.39479 1.96533 0.876723 1.96533Z" fill="black"/>
<path fill-rule="evenodd" clip-rule="evenodd" d="M3.07531 7.07324H5.06062C5.11064 7.07324 5.15156 7.11425 5.15156 7.16436V9.1538C5.15156 9.20392 5.11064 9.24492 5.06062 9.24492H3.07531C3.02529 9.24492 2.98438 9.20392 2.98438 9.1538V7.16436C2.98438 7.11425 3.02529 7.07324 3.07531 7.07324Z" fill="black"/>
<path fill-rule="evenodd" clip-rule="evenodd" d="M6.98156 7.07324H8.96687C9.01689 7.07324 9.0578 7.11425 9.0578 7.16436V9.1538C9.0578 9.20392 9.01689 9.24492 8.96687 9.24492H6.98156C6.93154 9.24492 6.89062 9.20392 6.89062 9.1538V7.16436C6.89062 7.11425 6.93154 7.07324 6.98156 7.07324Z" fill="black"/>
<path fill-rule="evenodd" clip-rule="evenodd" d="M10.9425 7.07324H12.9278C12.9778 7.07324 13.0187 7.11425 13.0187 7.16436V9.1538C13.0187 9.20392 12.9778 9.24492 12.9278 9.24492H10.9425C10.8925 9.24492 10.8516 9.20392 10.8516 9.1538V7.16436C10.8516 7.11425 10.8925 7.07324 10.9425 7.07324Z" fill="black"/>
<path fill-rule="evenodd" clip-rule="evenodd" d="M3.07531 10.1538H5.06062C5.11064 10.1538 5.15156 10.1948 5.15156 10.2449V12.2344C5.15156 12.2845 5.11064 12.3255 5.06062 12.3255H3.07531C3.02529 12.3255 2.98438 12.2845 2.98438 12.2344V10.2449C2.98438 10.1948 3.02529 10.1538 3.07531 10.1538Z" fill="black"/>
<path fill-rule="evenodd" clip-rule="evenodd" d="M6.98156 10.1538H8.96687C9.01689 10.1538 9.0578 10.1948 9.0578 10.2449V12.2344C9.0578 12.2845 9.01689 12.3255 8.96687 12.3255H6.98156C6.93154 12.3255 6.89062 12.2845 6.89062 12.2344V10.2449C6.89062 10.1948 6.93154 10.1538 6.98156 10.1538Z" fill="black"/>
<path fill-rule="evenodd" clip-rule="evenodd" d="M10.9425 10.1538H12.9278C12.9778 10.1538 13.0187 10.1948 13.0187 10.2449V12.2344C13.0187 12.2845 12.9778 12.3255 12.9278 12.3255H10.9425C10.8925 12.3255 10.8516 12.2845 10.8516 12.2344V10.2449C10.8516 10.1948 10.8925 10.1538 10.9425 10.1538Z" fill="black"/>
<path fill-rule="evenodd" clip-rule="evenodd" d="M3.97079 0C4.53077 0 4.98846 0.458634 4.98846 1.01978V2.8209C4.98846 3.38205 4.53077 3.84068 3.97079 3.84068C3.41081 3.84068 2.95312 3.38205 2.95312 2.8209V1.01978C2.95312 0.458634 3.41081 0 3.97079 0Z" fill="black"/>
<path fill-rule="evenodd" clip-rule="evenodd" d="M12.0255 0C12.5855 0 13.0431 0.458634 13.0431 1.01978V2.8209C13.0431 3.38205 12.5855 3.84068 12.0255 3.84068C11.4655 3.84068 11.0078 3.38205 11.0078 2.8209V1.01978C11.0078 0.458634 11.4655 0 12.0255 0Z" fill="black"/>
</g>
<defs>
<clipPath id="clip0_502_275">
<rect width="16" height="14.939" fill="white"/>
</clipPath>
</defs>
</svg>
