<svg width="55" height="55" viewBox="0 0 55 55" fill="none" xmlns="http://www.w3.org/2000/svg">
<circle cx="27.5" cy="27.5" r="27.5" fill="#D22730"/>
<path d="M27.3383 39.32C25.4823 39.32 23.8929 38.8827 22.5703 38.008C21.2689 37.112 20.2769 35.832 19.5943 34.168C18.9116 32.504 18.5703 30.488 18.5703 28.12C18.5703 25.56 18.9543 23.3947 19.7223 21.624C20.4903 19.832 21.5996 18.4667 23.0503 17.528C24.5009 16.5893 26.2396 16.12 28.2663 16.12C29.0556 16.12 29.8449 16.2267 30.6343 16.44C31.4449 16.632 32.2023 16.92 32.9062 17.304C33.6316 17.6667 34.2716 18.1147 34.8263 18.648L33.4823 21.72C32.6929 20.9947 31.8503 20.4613 30.9543 20.12C30.0583 19.7573 29.1409 19.576 28.2023 19.576C27.2849 19.576 26.4636 19.7467 25.7383 20.088C25.0343 20.408 24.4369 20.8987 23.9463 21.56C23.4556 22.2 23.0823 23.0107 22.8263 23.992C22.5916 24.952 22.4743 26.072 22.4743 27.352V29.752H22.0903C22.2609 28.664 22.6129 27.736 23.1463 26.968C23.7009 26.1787 24.4049 25.5813 25.2583 25.176C26.1116 24.7493 27.0609 24.536 28.1063 24.536C29.4076 24.536 30.5596 24.8453 31.5623 25.464C32.5649 26.0827 33.3542 26.936 33.9303 28.024C34.5063 29.112 34.7943 30.36 34.7943 31.768C34.7943 33.2187 34.4743 34.52 33.8343 35.672C33.2156 36.8027 32.3409 37.6987 31.2103 38.36C30.1009 39 28.8103 39.32 27.3383 39.32ZM27.1143 36.056C27.8823 36.056 28.5543 35.8853 29.1303 35.544C29.7276 35.2027 30.1863 34.7227 30.5063 34.104C30.8263 33.464 30.9863 32.7387 30.9863 31.928C30.9863 31.096 30.8263 30.3707 30.5063 29.752C30.1863 29.1333 29.7276 28.6533 29.1303 28.312C28.5543 27.9493 27.8823 27.768 27.1143 27.768C26.3463 27.768 25.6743 27.9493 25.0983 28.312C24.5223 28.6533 24.0636 29.1333 23.7223 29.752C23.4023 30.3707 23.2423 31.096 23.2423 31.928C23.2423 32.7387 23.4023 33.464 23.7223 34.104C24.0636 34.7227 24.5223 35.2027 25.0983 35.544C25.6743 35.8853 26.3463 36.056 27.1143 36.056Z" fill="white"/>
</svg>
