<svg width="55" height="55" viewBox="0 0 55 55" fill="none" xmlns="http://www.w3.org/2000/svg">
<circle cx="27.5" cy="27.5" r="27.5" fill="#D22730"/>
<path d="M26.6983 39.32C25.7169 39.32 24.7463 39.2133 23.7863 39C22.8476 38.7867 21.9623 38.488 21.1302 38.104C20.3196 37.72 19.6156 37.272 19.0182 36.76L20.3623 33.624C21.3436 34.3707 22.3569 34.936 23.4023 35.32C24.4476 35.6827 25.5249 35.864 26.6343 35.864C27.9783 35.864 29.0236 35.5227 29.7703 34.84C30.5383 34.136 30.9223 33.1973 30.9223 32.024C30.9223 30.8293 30.5596 29.8693 29.8343 29.144C29.1089 28.3973 28.1169 28.024 26.8583 28.024C25.9409 28.024 25.1196 28.2053 24.3943 28.568C23.6689 28.9093 23.0076 29.4427 22.4103 30.168H19.6583V16.44H33.5143V19.832H23.6583V27H22.6023C23.1569 26.2533 23.8823 25.6773 24.7783 25.272C25.6956 24.8667 26.7089 24.664 27.8183 24.664C29.2476 24.664 30.4849 24.9733 31.5303 25.592C32.5969 26.1893 33.4183 27.032 33.9943 28.12C34.5916 29.1867 34.8903 30.4347 34.8903 31.864C34.8903 33.336 34.5596 34.6373 33.8983 35.768C33.2369 36.8773 32.2876 37.752 31.0503 38.392C29.8343 39.0107 28.3836 39.32 26.6983 39.32Z" fill="white"/>
</svg>
