<svg width="55" height="55" viewBox="0 0 55 55" fill="none" xmlns="http://www.w3.org/2000/svg">
<circle cx="27.5" cy="27.5" r="27.5" fill="#D22730"/>
<path d="M27.0583 39.32C26.0343 39.32 25.0316 39.2133 24.0503 39C23.0903 38.808 22.1943 38.52 21.3623 38.136C20.5303 37.752 19.8049 37.2933 19.1863 36.76L20.5303 33.624C21.5329 34.392 22.5569 34.9573 23.6023 35.32C24.6476 35.6827 25.7569 35.864 26.9303 35.864C27.8689 35.864 28.6583 35.736 29.2983 35.48C29.9383 35.224 30.4183 34.84 30.7383 34.328C31.0796 33.816 31.2503 33.1973 31.2503 32.472C31.2503 31.4053 30.8876 30.616 30.1623 30.104C29.4583 29.5707 28.4236 29.304 27.0583 29.304H23.4423V25.912H26.6743C27.4849 25.912 28.1783 25.784 28.7543 25.528C29.3303 25.2507 29.7783 24.8667 30.0983 24.376C30.4183 23.8853 30.5783 23.288 30.5783 22.584C30.5783 21.6027 30.2476 20.856 29.5863 20.344C28.9463 19.832 28.0076 19.576 26.7703 19.576C25.6609 19.576 24.6263 19.768 23.6663 20.152C22.7063 20.5147 21.7889 21.0907 20.9143 21.88L19.5703 18.808C20.4663 17.9547 21.5863 17.2933 22.9303 16.824C24.2743 16.3547 25.6716 16.12 27.1223 16.12C28.6796 16.12 30.0129 16.3653 31.1223 16.856C32.2316 17.3253 33.0743 18.008 33.6503 18.904C34.2476 19.7787 34.5463 20.8453 34.5463 22.104C34.5463 23.448 34.1729 24.6107 33.4263 25.592C32.6796 26.552 31.6556 27.192 30.3543 27.512V27.128C31.3783 27.2987 32.2529 27.64 32.9783 28.152C33.7036 28.664 34.2582 29.3147 34.6423 30.104C35.0263 30.8933 35.2183 31.8 35.2183 32.824C35.2183 34.1467 34.8876 35.2987 34.2263 36.28C33.5649 37.2613 32.6263 38.0187 31.4103 38.552C30.1943 39.064 28.7436 39.32 27.0583 39.32Z" fill="white"/>
</svg>
 