<svg width="55" height="55" viewBox="0 0 55 55" fill="none" xmlns="http://www.w3.org/2000/svg">
<circle cx="27.5" cy="27.5" r="27.5" fill="#D22730"/>
<path d="M20.4663 39V35.96L27.7623 28.184C28.4236 27.48 28.9463 26.8293 29.3303 26.232C29.7356 25.6347 30.0343 25.0587 30.2263 24.504C30.4183 23.9493 30.5143 23.3947 30.5143 22.84C30.5143 21.7733 30.1729 20.9627 29.4903 20.408C28.8289 19.8533 27.8583 19.576 26.5783 19.576C25.5756 19.576 24.5943 19.768 23.6343 20.152C22.6956 20.5147 21.7889 21.0907 20.9143 21.88L19.5383 18.808C20.4343 17.9973 21.5543 17.3467 22.8983 16.856C24.2423 16.3653 25.6396 16.12 27.0903 16.12C28.7116 16.12 30.0769 16.3653 31.1863 16.856C32.2956 17.3467 33.1383 18.0613 33.7143 19C34.2903 19.9387 34.5783 21.08 34.5783 22.424C34.5783 23.1067 34.4929 23.7787 34.3223 24.44C34.1729 25.08 33.9276 25.72 33.5863 26.36C33.2663 27 32.8503 27.6613 32.3383 28.344C31.8476 29.0053 31.2503 29.6987 30.5463 30.424L24.5303 36.696V35.608H35.4423V39H20.4663Z" fill="white"/>
</svg>
