<svg width="16" height="11" viewBox="0 0 16 11" fill="none" xmlns="http://www.w3.org/2000/svg">
<g clip-path="url(#clip0_502_309)">
<rect width="16" height="10.9553" fill="#F6F7F9"/>
<path fill-rule="evenodd" clip-rule="evenodd" d="M1.15135 1.88833V8.79526L5.25568 5.34179L1.15135 1.88833ZM13.8168 1.15522H2.24597L8.03174 6.02341L13.8168 1.15522ZM14.848 8.79594V1.88833L10.7436 5.34179L14.848 8.79526V8.79594ZM9.79556 6.14062L8.34574 7.36021C8.15126 7.52418 7.84469 7.52079 7.65021 7.3575L6.20376 6.14062L1.85498 9.80006H14.1437L9.79488 6.14062H9.79556ZM0.790073 0H15.2093C15.6441 0 15.9993 0.356391 15.9993 0.792732V10.1626C15.9993 10.5989 15.6441 10.9553 15.2093 10.9553H0.790073C0.355195 10.9553 0 10.5989 0 10.1626V0.792732C0 0.356391 0.355195 0 0.790073 0Z" fill="black"/>
</g>
<defs>
<clipPath id="clip0_502_309">
<rect width="16" height="10.9553" fill="white"/>
</clipPath>
</defs>
</svg>
