<svg width="25" height="25" viewBox="0 0 25 25" fill="none" xmlns="http://www.w3.org/2000/svg">
<g clip-path="url(#clip0_512_590)">
<path d="M12.2835 0C5.49993 0 0 5.49993 0 12.2835C0 18.4141 4.49179 23.4962 10.3647 24.4181V15.8344H7.24624V12.2835H10.3647V9.57727C10.3647 6.4991 12.1984 4.79871 15.0044 4.79871C16.3486 4.79871 17.7543 5.03843 17.7543 5.03843V8.06171H16.2052C14.6795 8.06171 14.2035 9.00823 14.2035 9.98052V12.2847H17.6098L17.0655 15.8355H14.2035V24.4192C20.0764 23.4973 24.5682 18.4164 24.5682 12.2847C24.5671 5.49993 19.0672 0 12.2835 0Z" fill="white"/>
</g>
<defs>
<clipPath id="clip0_512_590">
<rect width="24.5671" height="24.4181" fill="white"/>
</clipPath>
</defs>
</svg>
