<svg width="25" height="25" viewBox="0 0 25 25" fill="none" xmlns="http://www.w3.org/2000/svg">
<g clip-path="url(#clip0_502_319)">
<rect width="24.5671" height="24.3188" fill="#F6F7F9"/>
<path d="M12.2835 0C5.49993 0 0 5.47757 0 12.2336C0 18.3393 4.49179 23.4007 10.3647 24.3188V15.77H7.24624V12.2336H10.3647V9.53833C10.3647 6.47268 12.1984 4.77921 15.0044 4.77921C16.3486 4.77921 17.7543 5.01794 17.7543 5.01794V8.02893H16.2052C14.6795 8.02893 14.2035 8.97161 14.2035 9.93995V12.2347H17.6098L17.0655 15.7712H14.2035V24.32C20.0764 23.4018 24.5682 18.3415 24.5682 12.2347C24.5671 5.47757 19.0672 0 12.2835 0Z" fill="black"/>
</g>
<defs>
<clipPath id="clip0_502_319">
<rect width="24.5671" height="24.3188" fill="white"/>
</clipPath>
</defs>
</svg>
