<svg width="25" height="25" viewBox="0 0 25 25" fill="none" xmlns="http://www.w3.org/2000/svg">
<g clip-path="url(#clip0_512_584)">
<path d="M14.8995 6.42188H9.24801C7.63723 6.42188 6.32812 7.75501 6.32812 9.39286V15.1444C6.32812 16.7834 7.63833 18.1154 9.24801 18.1154H14.8995C16.5103 18.1154 17.8205 16.7822 17.8205 15.1444V9.39286C17.8205 7.75389 16.5103 6.42188 14.8995 6.42188ZM12.1316 15.8154C10.2092 15.8154 8.64465 14.2235 8.64465 12.2686C8.64465 10.3137 10.2092 8.72181 12.1316 8.72181C14.0539 8.72181 15.6174 10.3126 15.6174 12.2686C15.6174 14.2246 14.0528 15.8154 12.1316 15.8154ZM15.8211 9.32676C15.363 9.32676 14.9909 8.94811 14.9909 8.48207C14.9909 8.01603 15.363 7.63738 15.8211 7.63738C16.2791 7.63738 16.6512 8.01491 16.6512 8.48207C16.6512 8.94923 16.2791 9.32676 15.8211 9.32676Z" fill="white"/>
<path d="M12.1313 9.99512C10.9004 9.99512 9.89844 11.0146 9.89844 12.267C9.89844 13.5195 10.9004 14.539 12.1313 14.539C13.3622 14.539 14.3641 13.5195 14.3641 12.267C14.3641 11.0146 13.3622 9.99512 12.1313 9.99512Z" fill="white"/>
<path d="M12.0737 0C5.40597 0 0 5.50058 0 12.285C0 19.0694 5.40597 24.57 12.0737 24.57C18.7414 24.57 24.1474 19.0694 24.1474 12.285C24.1474 5.50058 18.7414 0 12.0737 0ZM19.1521 15.1428C19.1521 17.529 17.2441 19.4694 14.9 19.4694H9.2485C6.90335 19.4694 4.99639 17.529 4.99639 15.1428V9.39131C4.99639 7.00512 6.90445 5.06479 9.2485 5.06479H14.9C17.2452 5.06479 19.1521 7.00512 19.1521 9.39131V15.1428Z" fill="white"/>
</g>
<defs>
<clipPath id="clip0_512_584">
<rect width="24.1474" height="24.57" fill="white"/>
</clipPath>
</defs>
</svg>
