<svg width="25" height="25" viewBox="0 0 25 25" fill="none" xmlns="http://www.w3.org/2000/svg">
<g clip-path="url(#clip0_502_313)">
<rect width="24.1474" height="24.4701" fill="#F6F7F9"/>
<path d="M14.8995 6.39551H9.24801C7.63723 6.39551 6.32812 7.72322 6.32812 9.35441V15.0826C6.32812 16.7149 7.63833 18.0415 9.24801 18.0415H14.8995C16.5103 18.0415 17.8205 16.7137 17.8205 15.0826V9.35441C17.8205 7.72211 16.5103 6.39551 14.8995 6.39551ZM12.1316 15.7509C10.2092 15.7509 8.64465 14.1654 8.64465 12.2185C8.64465 10.2715 10.2092 8.68609 12.1316 8.68609C14.0539 8.68609 15.6174 10.2704 15.6174 12.2185C15.6174 14.1665 14.0528 15.7509 12.1316 15.7509ZM15.8211 9.28859C15.363 9.28859 14.9909 8.91147 14.9909 8.44733C14.9909 7.98319 15.363 7.60607 15.8211 7.60607C16.2791 7.60607 16.6512 7.98207 16.6512 8.44733C16.6512 8.91259 16.2791 9.28859 15.8211 9.28859Z" fill="black"/>
<path d="M12.1313 9.95459C10.9004 9.95459 9.89844 10.9699 9.89844 12.2173C9.89844 13.4647 10.9004 14.48 12.1313 14.48C13.3622 14.48 14.3641 13.4647 14.3641 12.2173C14.3641 10.9699 13.3622 9.95459 12.1313 9.95459Z" fill="black"/>
<path d="M12.0737 0C5.40597 0 0 5.47822 0 12.2351C0 18.9919 5.40597 24.4701 12.0737 24.4701C18.7414 24.4701 24.1474 18.9919 24.1474 12.2351C24.1474 5.47822 18.7414 0 12.0737 0ZM19.1521 15.0813C19.1521 17.4578 17.2441 19.3902 14.9 19.3902H9.2485C6.90335 19.3902 4.99639 17.4578 4.99639 15.0813V9.35314C4.99639 6.97664 6.90445 5.0442 9.2485 5.0442H14.9C17.2452 5.0442 19.1521 6.97664 19.1521 9.35314V15.0813Z" fill="black"/>
</g>
<defs>
<clipPath id="clip0_502_313">
<rect width="24.1474" height="24.4701" fill="white"/>
</clipPath>
</defs>
</svg>
