<svg width="25" height="25" viewBox="0 0 25 25" fill="none" xmlns="http://www.w3.org/2000/svg">
<g clip-path="url(#clip0_502_317)">
<rect width="24.5671" height="24.4672" fill="#F6F7F9"/>
<path d="M12.2835 0C5.49993 0 0 5.47757 0 12.2336C0 18.9896 5.49993 24.4672 12.2835 24.4672C19.0672 24.4672 24.5671 18.9896 24.5671 12.2336C24.5671 5.47757 19.0672 0 12.2835 0ZM9.51118 17.5662H7.13198V9.95445H9.51118V17.5662ZM8.32158 8.91695C7.55876 8.91695 6.94268 8.30114 6.94268 7.54365C6.94268 6.78616 7.55876 6.17258 8.32158 6.17258C9.0844 6.17258 9.69936 6.78728 9.69936 7.54365C9.69936 8.30002 9.08328 8.91695 8.32158 8.91695ZM18.4096 17.5662H16.036V13.8657C16.036 12.9822 16.0192 11.8476 14.8016 11.8476C13.584 11.8476 13.3768 12.8093 13.3768 13.801V17.5662H11.0021V9.95445H13.2805V10.9953H13.3118C13.63 10.3962 14.404 9.76591 15.5611 9.76591C17.9661 9.76591 18.4096 11.3411 18.4096 13.3916V17.5662Z" fill="black"/>
</g>
<defs>
<clipPath id="clip0_502_317">
<rect width="24.5671" height="24.4672" fill="white"/>
</clipPath>
</defs>
</svg>
