<svg width="25" height="25" viewBox="0 0 25 25" fill="none" xmlns="http://www.w3.org/2000/svg">
<g clip-path="url(#clip0_512_588)">
<path d="M12.2835 0C5.49993 0 0 5.49993 0 12.2835C0 19.0672 5.49993 24.5671 12.2835 24.5671C19.0672 24.5671 24.5671 19.0672 24.5671 12.2835C24.5671 5.49993 19.0672 0 12.2835 0ZM9.51118 17.6378H7.13198V9.99508H9.51118V17.6378ZM8.32158 8.95334C7.55876 8.95334 6.94268 8.33502 6.94268 7.57444C6.94268 6.81386 7.55876 6.19778 8.32158 6.19778C9.0844 6.19778 9.69936 6.81498 9.69936 7.57444C9.69936 8.3339 9.08328 8.95334 8.32158 8.95334ZM18.4096 17.6378H16.036V13.9223C16.036 13.0352 16.0192 11.896 14.8016 11.896C13.584 11.896 13.3768 12.8615 13.3768 13.8574V17.6378H11.0021V9.99508H13.2805V11.0402H13.3118C13.63 10.4387 14.404 9.80577 15.5611 9.80577C17.9661 9.80577 18.4096 11.3874 18.4096 13.4463V17.6378Z" fill="white"/>
</g>
<defs>
<clipPath id="clip0_512_588">
<rect width="24.5671" height="24.5671" fill="white"/>
</clipPath>
</defs>
</svg>
