<svg width="15" height="16" viewBox="0 0 15 16" fill="none" xmlns="http://www.w3.org/2000/svg">
<g clip-path="url(#clip0_502_307)">
<rect width="15" height="15.935" fill="#F6F7F9"/>
<path fill-rule="evenodd" clip-rule="evenodd" d="M5.60377 4.03047C5.14405 2.02093 4.88463 0.886538 4.8255 0.628754C4.60229 -0.346721 2.54243 -0.00691552 1.8122 0.449332C-1.27132 2.37758 0.194312 6.62441 1.70799 9.11363C4.5003 13.1737 7.31922 15.4022 10.1633 15.7992C12.4123 16.3008 15.1396 15.4432 14.994 12.7717C14.9741 12.4062 14.9016 12.1177 14.776 11.9046C14.5676 11.5867 13.2823 11.0983 10.9208 10.4384C10.4663 10.3366 9.97923 10.5732 9.45891 11.1488C9.3813 11.2367 9.30222 11.3136 9.22166 11.3802C8.82846 11.7061 8.59047 11.7574 8.16105 11.5047C6.84989 10.7336 4.63629 7.72292 4.13592 6.79944C3.99328 6.42375 4.12705 6.10299 4.53651 5.83788C5.33326 5.36552 5.68877 4.76281 5.60377 4.02974" fill="black"/>
</g>
<defs>
<clipPath id="clip0_502_307">
<rect width="15" height="15.935" fill="white"/>
</clipPath>
</defs>
</svg>
