<svg width="22" height="18" viewBox="0 0 22 18" fill="none" xmlns="http://www.w3.org/2000/svg">
<path d="M0.456 17.776V11.952C0.456 10.5013 0.605333 9.136 0.904 7.856C1.24533 6.576 1.77867 5.31733 2.504 4.08C3.272 2.84267 4.27467 1.60533 5.512 0.367996L8.84 2.992C7.944 3.93066 7.21867 4.82666 6.664 5.68C6.10933 6.49067 5.704 7.32267 5.448 8.176C5.23467 8.98667 5.128 9.84 5.128 10.736L3.144 8.88H9.416V17.776H0.456ZM12.936 17.776V11.952C12.936 10.5013 13.0853 9.136 13.384 7.856C13.7253 6.576 14.2587 5.31733 14.984 4.08C15.752 2.84267 16.7547 1.60533 17.992 0.367996L21.32 2.992C20.424 3.93066 19.6987 4.82666 19.144 5.68C18.5893 6.49067 18.184 7.32267 17.928 8.176C17.7147 8.98667 17.608 9.84 17.608 10.736L15.624 8.88H21.896V17.776H12.936Z" fill="#D22730"/>
</svg>
