<svg xmlns="http://www.w3.org/2000/svg" xmlns:xlink="http://www.w3.org/1999/xlink" width="34.905" height="15.726" viewBox="0 0 34.905 15.726">
  <defs>
    <clipPath id="clip-path">
      <rect id="Rectangle_508" data-name="Rectangle 508" width="34.905" height="15.726" fill="none"/>
    </clipPath>
  </defs>
  <g id="Group_1094" data-name="Group 1094" transform="translate(0 0)">
    <g id="Group_1089" data-name="Group 1089" transform="translate(0 0)" clip-path="url(#clip-path)">
      <path id="Path_409" data-name="Path 409" d="M32.62,15.726H2.288A2.288,2.288,0,0,1,0,13.441V2.285A2.287,2.287,0,0,1,2.288,0H32.62a2.284,2.284,0,0,1,2.285,2.285V13.441a2.286,2.286,0,0,1-2.285,2.285" transform="translate(0 -0.001)" fill="#0d2c41"/>
      <path id="Path_410" data-name="Path 410" d="M6.194,4.854a1.289,1.289,0,0,1,.244.8A1.235,1.235,0,0,1,5.97,6.675a2.032,2.032,0,0,1-1.288.37H2.363V1.933H4.609a2.009,2.009,0,0,1,1.252.35,1.175,1.175,0,0,1,.454.983,1.17,1.17,0,0,1-.216.7,1.2,1.2,0,0,1-.591.434,1.241,1.241,0,0,1,.686.451m-2.918-.77H4.458c.641,0,.963-.238.963-.717a.615.615,0,0,0-.238-.535,1.22,1.22,0,0,0-.725-.176H3.276ZM5.321,6.137a.673.673,0,0,0,.232-.566A.689.689,0,0,0,5.318,5a1.171,1.171,0,0,0-.737-.19H3.276v1.51H4.581a1.2,1.2,0,0,0,.739-.182" transform="translate(4.255 3.48)" fill="#fff"/>
      <path id="Path_411" data-name="Path 411" d="M4.649,1.933H8.071v.739H5.562V4.078H7.926v.734H5.562V6.3H8.071v.739H4.649Z" transform="translate(8.371 3.479)" fill="#fff"/>
      <path id="Path_412" data-name="Path 412" d="M8.195,2.7H6.528V1.933H10.8V2.7H9.13V7.044H8.195Z" transform="translate(11.756 3.48)" fill="#fff"/>
      <path id="Path_413" data-name="Path 413" d="M12.319,5.848H9.832l-.513,1.2H8.376l2.313-5.111h.762l2.311,5.111h-.927Zm-.311-.725-.935-2.176-.935,2.176Z" transform="translate(15.083 3.48)" fill="#fff"/>
    </g>
  </g>
</svg>
