<svg width="33" height="31" viewBox="0 0 33 31" fill="none" xmlns="http://www.w3.org/2000/svg">
<path d="M0 10C0 4.47715 4.47715 0 10 0H23C28.5228 0 33 4.47715 33 10V21C33 26.5228 28.5228 31 23 31H10C4.47715 31 0 26.5228 0 21V10Z" fill="#E2F0F3"/>
<g clip-path="url(#clip0_12_6)">
<path d="M23.5833 18.985V21.11C23.5841 21.3073 23.5437 21.5025 23.4647 21.6833C23.3857 21.864 23.2697 22.0263 23.1244 22.1597C22.979 22.293 22.8074 22.3946 22.6205 22.4578C22.4336 22.521 22.2356 22.5444 22.0392 22.5267C19.8595 22.2898 17.7658 21.545 15.9262 20.3521C14.2148 19.2646 12.7638 17.8135 11.6762 16.1021C10.4791 14.2542 9.73417 12.1503 9.50166 9.96083C9.48396 9.76496 9.50724 9.56754 9.57001 9.38115C9.63279 9.19476 9.73369 9.02349 9.86629 8.87823C9.99888 8.73298 10.1603 8.61692 10.3402 8.53745C10.5201 8.45799 10.7146 8.41685 10.9112 8.41667H13.0362C13.38 8.41328 13.7133 8.53502 13.9739 8.75917C14.2346 8.98333 14.4048 9.29461 14.4529 9.635C14.5426 10.315 14.7089 10.9828 14.9487 11.6254C15.044 11.8789 15.0647 12.1545 15.0082 12.4194C14.9517 12.6843 14.8204 12.9274 14.63 13.12L13.7304 14.0196C14.7388 15.7929 16.2071 17.2612 17.9804 18.2696L18.88 17.37C19.0726 17.1796 19.3157 17.0483 19.5806 16.9918C19.8455 16.9353 20.121 16.9559 20.3746 17.0513C21.0172 17.2911 21.6849 17.4574 22.365 17.5471C22.7091 17.5956 23.0233 17.7689 23.248 18.0341C23.4726 18.2992 23.5919 18.6376 23.5833 18.985Z" stroke="#1E1E1E" stroke-linecap="round" stroke-linejoin="round"/>
</g>
<defs>
<clipPath id="clip0_12_6">
<rect width="17" height="17" fill="white" transform="translate(8 7)"/>
</clipPath>
</defs>
</svg>
